<svg preserveAspectRatio="xMidYMid meet" width="100%" height="100%" overflow="visible" style="display: block;" viewBox="0 0 94.4092 94.4092" fill="none" xmlns="http://www.w3.org/2000/svg">
<g id="Phase2_Icon_Black_AI">
<path id="Vector" d="M87.289 55.227L87.2824 55.2013L87.2857 55.1973C87.3768 55.092 87.4668 54.9866 87.5535 54.8779L87.638 54.7682C91.8692 49.3977 93.4245 42.4956 91.9043 35.8273L91.8681 35.678C91.1097 32.4528 89.6192 29.3807 87.5557 26.7931C85.4571 24.1633 82.7483 22.0022 79.719 20.5413C79.5936 20.4821 79.4653 20.426 79.3377 20.3696C79.3207 20.2728 79.3024 20.1765 79.28 20.0771L79.2514 19.9514C77.717 13.2353 73.2762 7.66785 67.0683 4.6775C61.0229 1.76124 53.5978 1.75465 47.5326 4.67201C47.403 4.73403 47.279 4.79933 47.155 4.86574L47.1522 4.86718L47.1451 4.86354C47.031 4.80372 46.9179 4.74391 46.7697 4.67201C40.5646 1.68715 33.4457 1.6866 27.2054 4.69012C21.0123 7.67773 16.5809 13.2392 15.0475 19.9514L15.0212 20.0716C14.9987 20.1704 14.9807 20.2662 14.9628 20.3625C14.8348 20.421 14.7083 20.4784 14.5723 20.5435C8.40666 23.5174 3.97903 29.0404 2.42651 35.6917L2.39468 35.8196C2.01985 37.461 1.82997 39.1469 1.82997 40.8306C1.82997 45.914 3.57457 50.9003 6.74273 54.8714C6.8234 54.9723 6.90737 55.07 6.99133 55.1677L7.01308 55.1916L6.90627 55.6034C5.38338 62.2822 6.94523 69.1936 11.1885 74.5608L11.2582 74.6508C13.3523 77.2795 16.0612 79.4406 19.0916 80.9004C22.1209 82.3602 25.5025 83.1329 28.8704 83.1329C29.0038 83.1329 29.1355 83.1274 29.2672 83.1219L29.2812 83.1215C29.3406 83.2023 29.4 83.2833 29.4609 83.3601L29.5405 83.4633C33.8375 88.8469 40.254 91.9355 47.1561 91.9355C54.0434 91.9355 60.4554 88.848 64.7513 83.4633L65.0093 83.1247C65.1498 83.1309 65.2903 83.1362 65.4329 83.1362C72.3191 83.1362 78.7334 80.0487 83.0337 74.6629L83.0973 74.5795C86.2265 70.6238 87.9497 65.6649 87.9497 60.6172C87.9497 58.9324 87.7599 57.2465 87.3856 55.6067C87.3559 55.4794 87.323 55.3532 87.289 55.227ZM15.8351 23.1492C16.0993 23.0225 16.3663 22.9008 16.6399 22.7846L16.7971 22.7189C21.965 20.5633 27.8223 20.7202 32.8673 23.1492C33.7536 23.5756 34.6278 24.0821 35.4652 24.6534C37.0606 25.7504 38.483 27.0758 39.6937 28.5915C41.4937 30.8498 42.7932 33.5312 43.4518 36.3415L43.4792 36.4644C43.9094 38.3484 44.0582 40.2862 43.9215 42.224C43.8866 42.7135 43.8142 43.2213 43.7393 43.7279C42.2433 42.4108 40.5909 41.289 38.8057 40.4091L38.6328 40.3246C38.2531 40.1408 37.8689 39.9701 37.4804 39.8093C37.4806 39.8094 37.4802 39.8092 37.4804 39.8093C34.765 38.687 31.7829 38.0927 28.8567 38.0927C26.6341 38.0927 24.4302 38.422 22.3075 39.069C21.2077 39.4005 20.1271 39.8208 19.0949 40.3197C18.8615 40.4327 18.6339 40.5546 18.4052 40.6749C18.2975 40.7317 18.187 40.7842 18.0802 40.8421L17.9847 40.8969L17.7619 41.0243C17.6048 41.1138 17.4489 41.206 17.2929 41.2982C17.2266 41.3374 17.1592 41.3742 17.0934 41.4145C17.0929 41.4149 17.0923 41.4153 17.0918 41.4156L16.9887 41.4815L16.7307 41.6455L16.7301 41.6466C16.7303 41.6466 16.73 41.6467 16.7301 41.6466C16.5328 41.7727 16.3349 41.901 16.1425 42.0331C16.1254 42.0447 16.1086 42.0569 16.0916 42.0687C16.0367 42.1066 15.9732 42.1512 15.9037 42.2007C15.8849 42.2141 15.8659 42.2271 15.8471 42.2404C15.8205 42.2595 15.8009 42.2739 15.7703 42.2959C15.7037 42.3432 15.6396 42.3927 15.5736 42.4407C15.4557 42.5266 15.3371 42.6117 15.2215 42.6998C15.0986 42.7921 14.9773 42.8879 14.8566 42.9835C14.6798 43.1232 14.5073 43.2669 14.3358 43.4116C14.3333 43.4136 14.3312 43.4163 14.3288 43.4183C14.2469 43.4877 14.1653 43.5568 14.0843 43.6269C14.0519 43.6549 14.0191 43.6817 13.9867 43.7101C13.9332 43.7575 13.881 43.8072 13.8278 43.8554C13.711 43.9609 13.594 44.0659 13.4791 44.1733C13.4793 44.1732 13.479 44.1733 13.4791 44.1733L13.4259 44.224L13.3973 44.2506C13.38 44.2668 13.3634 44.283 13.3461 44.2992L13.1603 44.4746C12.9836 44.6452 12.8134 44.8219 12.6422 44.9997L12.3728 45.2774C12.1648 45.5019 11.9617 45.7318 11.7181 46.0161L11.6881 46.0503L11.6313 46.1143L11.6297 46.1171C11.4915 46.281 11.3605 46.4527 11.2269 46.6213C11.1279 46.7461 11.0251 46.8677 10.9283 46.9946C10.9274 46.9958 10.9266 46.9972 10.9256 46.9984L10.8639 47.084L10.7467 47.2459C10.5859 47.4627 10.4268 47.6811 10.2742 47.905L10.2736 47.9061L10.1159 48.1465L10.0437 48.2563C10.0076 48.3113 9.97298 48.3679 9.9371 48.4231C9.84442 48.5656 9.75126 48.7076 9.66174 48.8533L9.45588 49.2021L9.4329 49.2408L9.43235 49.2419C9.31841 49.4358 9.20666 49.6319 9.09875 49.8302L8.88082 50.2396L8.87917 50.2429C8.7902 50.4151 8.70033 50.595 8.59579 50.8107C8.59037 50.8221 8.5844 50.833 8.57898 50.8443C8.5761 50.8502 8.57356 50.8562 8.57075 50.862C8.56314 50.8779 8.55717 50.8895 8.54935 50.9058L8.38032 51.2647C8.29553 51.4511 8.215 51.6394 8.13529 51.8278C8.13282 51.8335 8.13014 51.8393 8.12767 51.8451C5.93773 48.6117 4.72594 44.7325 4.72594 40.8306C4.72594 39.401 4.88289 37.9681 5.19131 36.5802L5.22149 36.4557C6.55505 30.6083 10.424 25.7587 15.8351 23.1492ZM76.4021 20.4793L76.4307 20.605C76.4865 20.8447 76.5358 21.0798 76.5784 21.3109L76.6024 21.449L76.6337 21.6307C76.8115 22.6578 76.907 23.7042 76.9191 24.7412C76.923 25.0742 76.9006 25.4051 76.8875 25.7369C76.8772 25.9995 76.8751 26.2628 76.8542 26.5242C76.83 26.8257 76.7857 27.124 76.7477 27.4234C76.716 27.6741 76.6932 27.9264 76.6518 28.1755C76.6009 28.4813 76.5294 28.7826 76.4642 29.0853C76.4129 29.3239 76.3711 29.5647 76.3109 29.801C76.2317 30.1125 76.1312 30.4177 76.0369 30.7247C75.9689 30.946 75.911 31.1704 75.8353 31.3892C75.7224 31.7152 75.5878 32.0331 75.4579 32.3528C75.3798 32.5452 75.3124 32.7417 75.2282 32.9315C75.0703 33.2875 74.89 33.6333 74.711 33.9797C74.6359 34.1251 74.5713 34.2754 74.4925 34.419C74.2514 34.8584 73.9885 35.2865 73.7135 35.7073C73.6847 35.7514 73.6608 35.7982 73.6316 35.8421C73.3217 36.308 72.9913 36.7615 72.6407 37.2009C72.0585 37.929 71.4246 38.6049 70.7606 39.2281C70.7027 39.2825 70.6488 39.3432 70.5905 39.3966C70.59 39.397 70.5898 39.3974 70.5894 39.3977C69.1625 40.7126 67.5557 41.8053 65.8116 42.646C61.4169 44.7599 56.2309 45.1578 51.5782 43.7331C51.0954 43.5874 50.6257 43.4046 50.1576 43.2198C51.8054 42.036 53.2952 40.6393 54.6097 39.0009C57.7806 35.025 59.5269 30.0381 59.5269 24.9591C59.5269 24.4202 59.506 23.8846 59.4665 23.3714C59.3919 22.2492 59.2228 21.1006 58.9616 19.9552C58.9188 19.7692 58.8668 19.5868 58.8195 19.4026C58.7723 19.2192 58.73 19.0344 58.6782 18.8528L58.5687 18.4911L58.5676 18.4894C58.5649 18.4804 58.5618 18.4713 58.5591 18.4622C58.5299 18.3652 58.4982 18.2687 58.4682 18.1717C58.4262 18.0354 58.3861 17.8988 58.3404 17.7634L58.2151 17.4154L58.19 17.3452C58.1901 17.3454 58.19 17.345 58.19 17.3452C58.1121 17.129 58.0331 16.9133 57.9497 16.6998C57.9161 16.6137 57.877 16.5199 57.8323 16.4133C57.8127 16.3664 57.7954 16.3246 57.7708 16.2657C57.6851 16.0616 57.5962 15.8574 57.5051 15.6566C57.5052 15.6568 57.5051 15.6564 57.5051 15.6566C57.4393 15.5122 57.3723 15.3679 57.3032 15.2247C57.2089 15.0268 57.1099 14.8309 57.0101 14.6364L56.8631 14.3576C56.8384 14.3108 56.8144 14.2635 56.7895 14.2171C56.7494 14.143 56.7064 14.0712 56.665 13.998C56.5969 13.8773 56.5294 13.756 56.4602 13.6365C56.46 13.6362 56.4594 13.6362 56.4591 13.6359L56.4141 13.5594L56.4153 13.5585C56.353 13.4519 56.2917 13.3454 56.2261 13.2405C56.1668 13.1435 56.1044 13.0487 56.0432 12.9532C55.9779 12.851 55.9146 12.7479 55.8478 12.6459L55.6184 12.293C55.5011 12.1231 55.3799 11.9577 55.2592 11.7923C55.2144 11.7309 55.1716 11.6677 55.1267 11.6065L55.0274 11.4688L54.9653 11.3821C54.7414 11.0879 54.512 10.7992 54.275 10.5166L54.2737 10.5151L54.1877 10.4167L54.0324 10.2389C53.8678 10.049 53.7042 9.86026 53.533 9.67532L53.4598 9.59897C53.4117 9.54807 53.364 9.49696 53.3146 9.44648L53.2158 9.3444L53.2142 9.34276L53.1456 9.27196C53.015 9.13751 52.8854 9.00306 52.7515 8.8719L52.7504 8.87299C52.7499 8.87245 52.7493 8.87196 52.7488 8.87142L52.6869 8.81146C52.6036 8.73038 52.5146 8.64614 52.3937 8.53275C52.2797 8.42642 52.1641 8.32187 52.0483 8.21788C52.0073 8.18097 51.9675 8.1429 51.9262 8.10634C51.9096 8.09159 51.8923 8.07759 51.8757 8.06291C51.7667 7.96612 51.6559 7.8707 51.5442 7.77597C51.385 7.64206 51.2248 7.5098 51.0624 7.37974C50.9296 7.27334 50.7978 7.16839 50.6617 7.06583C50.5016 6.94311 50.3393 6.82512 50.1761 6.70713C55.1833 4.77046 61.0023 4.96603 65.8182 7.28864C71.1821 9.87289 75.04 14.6814 76.4021 20.4793ZM47.5684 46.9174C47.2892 46.9119 47.0089 46.9113 46.7268 46.9159L46.7236 46.9117L46.7182 46.9119C46.5453 46.6871 46.3708 46.4684 46.1949 46.2552L46.1963 46.2499L46.193 46.246C46.261 45.9705 46.3234 45.697 46.3802 45.4251L46.385 45.4229L46.3861 45.4176C46.6384 45.302 46.8912 45.1806 47.1441 45.053L47.1495 45.0557L47.155 45.0529C47.4041 45.1787 47.656 45.2997 47.9109 45.4162L47.9123 45.4234L47.9193 45.4266C47.9764 45.701 48.0385 45.973 48.1054 46.2425L48.1 46.2488L48.1022 46.2574C47.9222 46.4739 47.7482 46.6919 47.5795 46.9113L47.5732 46.9112L47.5684 46.9174ZM85.2903 53.0691L85.2234 53.1558C85.0314 53.3934 84.8339 53.6251 84.6327 53.8515L84.612 53.8748C80.8912 58.0598 75.5449 60.4602 69.944 60.4602C68.9496 60.4602 67.9453 60.3823 66.9597 60.2264L66.8686 60.2122C64.9873 59.918 63.1588 59.3462 61.4312 58.512C58.8321 57.2608 56.4976 55.4081 54.6833 53.1602L54.6064 53.0626C53.4013 51.5534 52.4267 49.8719 51.7077 48.0664C51.7079 48.0667 51.7076 48.0661 51.7077 48.0664C51.706 48.0619 51.7044 48.0557 51.7026 48.0512C51.5253 47.602 51.3715 47.1196 51.2205 46.6323C53.1977 47.19 55.2383 47.4852 57.2988 47.4852C57.7181 47.4852 58.1395 47.4726 58.5588 47.4495C59.115 47.4176 59.6703 47.3446 60.225 47.2707C62.5941 46.9558 64.9324 46.2826 67.0661 45.2544C69.0637 44.294 70.9088 43.0406 72.5485 41.5303C73.2111 40.9242 73.8278 40.261 74.4147 39.5737C74.5765 39.3843 74.7473 39.2034 74.9028 39.0086C74.9028 39.0088 74.9029 39.0085 74.9028 39.0086C74.903 39.0083 74.9033 39.0075 74.9035 39.0072C75.1056 38.7538 75.2977 38.495 75.4869 38.235C75.5206 38.1886 75.5571 38.1447 75.5905 38.0978L75.8072 37.7826C75.951 37.5763 76.0937 37.3677 76.2287 37.1565C76.2286 37.1566 76.2288 37.1563 76.2287 37.1565C76.2467 37.1286 76.2679 37.0943 76.2858 37.0659C76.336 36.9867 76.389 36.9007 76.4536 36.7945C76.459 36.7856 76.4629 36.7796 76.4683 36.7707C76.5449 36.646 76.6198 36.5202 76.6946 36.3943C76.7355 36.3257 76.7783 36.258 76.8181 36.189C76.8971 36.0507 76.974 35.9107 77.0508 35.7702C77.1549 35.5791 77.2573 35.3868 77.357 35.1929C77.4305 35.0487 77.5018 34.9034 77.5719 34.7576C77.6652 34.5638 77.7554 34.3686 77.8432 34.1727C77.8474 34.1636 77.8503 34.154 77.8544 34.1449C77.8874 34.0713 77.9196 33.9978 77.9517 33.9242C77.9806 33.8587 78.0104 33.7934 78.0386 33.7271C78.0388 33.7265 78.0392 33.7258 78.0394 33.7253C78.1228 33.5255 78.2033 33.3232 78.2823 33.1212C78.2822 33.1214 78.2823 33.121 78.2823 33.1212L78.326 33.0061L78.4522 32.6777C78.529 32.4664 78.6006 32.2519 78.6719 32.0374L78.6718 32.0343L78.673 32.0346L78.7942 31.6649L78.811 31.6142C78.8188 31.589 78.8252 31.5631 78.8329 31.5379C78.8901 31.3472 78.9445 31.1551 78.9979 30.9634L79.045 30.7926L79.055 30.7592C79.0766 30.6843 79.0983 30.6093 79.1168 30.534C79.1785 30.291 79.2311 30.0459 79.2846 29.8009C79.309 29.6894 79.3385 29.5783 79.3612 29.4668C79.381 29.3713 79.3974 29.2748 79.415 29.1787L79.4446 29.0097C79.4473 28.9951 79.4496 28.9803 79.4522 28.9658C79.4546 28.9532 79.4565 28.9405 79.4588 28.9279C79.4929 28.7417 79.5265 28.5563 79.5561 28.3664C79.5718 28.266 79.5844 28.1652 79.5968 28.0645L79.6235 27.8655C79.6332 27.788 79.6416 27.7098 79.6512 27.632C79.6672 27.5068 79.6842 27.3816 79.6971 27.2563C79.6999 27.2291 79.7003 27.2019 79.703 27.1746L79.7421 26.7306C79.7441 26.7042 79.7453 26.6773 79.7473 26.651C79.7493 26.6258 79.7505 26.6004 79.7523 26.5751C79.7629 26.4291 79.7735 26.2832 79.7816 26.1351L79.7834 26.0905L79.8035 25.605L79.8034 25.6012C79.8089 25.4036 79.8112 25.2049 79.8112 25.0063C79.8112 24.8296 79.8101 24.6523 79.8068 24.474C79.8063 24.4487 79.8046 24.4231 79.8039 24.3978C79.7993 24.2251 79.7927 24.0521 79.7842 23.8774C81.8818 25.0985 83.7833 26.7077 85.2925 28.5992C87.1178 30.8887 88.4272 33.6096 89.0791 36.4738L89.1077 36.589C90.3973 42.4012 89.0067 48.4077 85.2903 53.0691ZM28.5209 7.26888C33.9133 4.68573 40.0965 4.68463 45.5234 7.28754C45.7863 7.41266 46.0475 7.54547 46.3044 7.68486L46.4525 7.76608L46.4542 7.76718C51.3604 10.4617 54.8918 15.1391 56.1387 20.6001C56.3648 21.5901 56.5118 22.5916 56.5788 23.58C56.6139 24.0294 56.6304 24.4811 56.6304 24.9596C56.6304 29.3642 55.1223 33.6936 52.3421 37.1987C51.1293 38.7189 49.7058 40.0442 48.1066 41.139C47.7115 41.4144 47.2803 41.6799 46.826 41.9427C46.9249 39.9235 46.7665 37.9071 46.3296 35.9431L46.3022 35.8163C45.5547 32.5373 44.0521 29.4147 41.9569 26.786C40.5679 25.0458 38.9341 23.5251 37.1012 22.2645C36.1419 21.6098 35.1398 21.0298 34.1229 20.5386C33.7805 20.3751 33.4336 20.2203 33.084 20.0727L32.8378 19.9755L32.7229 19.93L32.7213 19.9294C32.4908 19.8372 32.2603 19.7456 32.0271 19.6605C31.9736 19.6412 31.9127 19.6223 31.858 19.6036L31.5891 19.5113C31.4864 19.4763 31.3833 19.4444 31.2805 19.4106C31.1713 19.3745 31.0627 19.3367 30.9525 19.3033C30.8404 19.2688 30.7207 19.2349 30.5829 19.1959C30.5487 19.1862 30.515 19.1758 30.4806 19.1661C30.3819 19.1385 30.2835 19.1135 30.1848 19.0868C30.0796 19.0583 29.9746 19.0285 29.8692 19.0014C29.8694 19.0014 29.8691 19.0014 29.8692 19.0014C29.7052 18.9597 29.5411 18.9219 29.3737 18.8829C29.1739 18.8379 28.972 18.7951 28.77 18.7539C28.6021 18.7205 28.4336 18.6875 28.264 18.6579C28.0626 18.6228 27.8612 18.5915 27.6587 18.5619C27.632 18.5578 27.6053 18.5546 27.5786 18.5507C27.5764 18.5501 27.5742 18.5492 27.572 18.5492C27.4332 18.5284 27.2949 18.5075 27.1549 18.49H27.1516C27.1486 18.4895 27.1454 18.4894 27.1423 18.489C27 18.4712 26.8464 18.4556 26.6623 18.4378C26.6199 18.4336 26.5773 18.4283 26.5348 18.4242L26.3916 18.4098C26.3232 18.4029 26.2549 18.3973 26.1865 18.391C26.1357 18.3863 26.0847 18.3807 26.0343 18.3769C26.0338 18.3768 26.0332 18.3768 26.0327 18.3768C26.0169 18.3756 26.0008 18.3749 25.9851 18.3738C25.8179 18.3618 25.642 18.3536 25.424 18.3443C25.4047 18.3434 25.3863 18.3421 25.367 18.3412L25.3171 18.3389L25.2402 18.3347C25.1318 18.3286 25.0227 18.3226 24.9148 18.3198C24.5568 18.3105 24.1988 18.31 23.8397 18.3187C23.7303 18.3209 23.6198 18.327 23.5104 18.3325L23.4025 18.3379L23.2978 18.3429L23.1861 18.3478C23.0649 18.3535 22.9438 18.3598 22.8229 18.3677C22.7896 18.3698 22.7563 18.3707 22.7229 18.3731C22.5885 18.3829 22.454 18.3961 22.3196 18.4093L22.1945 18.4216L22.1791 18.423L22.0561 18.4351C21.9552 18.4451 21.8547 18.4563 21.7542 18.4673C21.7061 18.4725 21.6581 18.4766 21.61 18.4823C21.6102 18.4823 21.6098 18.4823 21.61 18.4823C21.6096 18.4824 21.6087 18.4829 21.6083 18.483C21.4442 18.5038 21.2807 18.5273 21.0584 18.5597C20.8713 18.5871 20.6836 18.6156 20.4976 18.648C20.3154 18.6798 20.1337 18.715 19.9526 18.7506L19.9517 18.7516C19.7624 18.79 19.5734 18.828 19.3863 18.8708C19.2979 18.8908 19.2102 18.9129 19.1223 18.9337C19.034 18.9545 18.9453 18.9743 18.8572 18.9965C18.6654 19.045 18.4745 19.0973 18.2838 19.1501C19.8929 13.9593 23.5678 9.65241 28.5209 7.26888ZM9.66997 56.5166L9.73308 56.2466C9.80936 55.913 9.89223 55.587 9.98498 55.261L9.99129 55.2375L9.99431 55.227C11.5287 49.8401 15.3044 45.3576 20.3538 42.9281C21.2505 42.4945 22.19 42.1285 23.1471 41.8404C24.0016 41.5792 24.8873 41.3766 25.7802 41.2378C26.1139 41.1858 26.4503 41.1543 26.7863 41.1197C26.9924 41.0983 27.1982 41.0742 27.405 41.0594C27.6913 41.039 27.9782 41.0308 28.2651 41.0229C28.4578 41.0175 28.6504 41.0081 28.8432 41.0084C29.1365 41.0088 29.4294 41.0225 29.7224 41.0358C29.9112 41.0444 30.1003 41.0479 30.2888 41.0617C30.5776 41.0829 30.8648 41.1182 31.1522 41.1518C31.3448 41.1744 31.5381 41.1911 31.7299 41.2192C32.0052 41.2594 32.2775 41.3142 32.5505 41.3658C32.7517 41.4039 32.9543 41.4354 33.1541 41.4797C33.4108 41.5364 33.6633 41.608 33.9172 41.6747C34.1281 41.7302 34.3411 41.7787 34.5498 41.8411C34.7901 41.9128 35.0246 41.9997 35.2616 42.0806C35.4769 42.1541 35.6952 42.2201 35.9075 42.3011C36.1805 42.4052 36.4459 42.526 36.7132 42.6424C36.8789 42.7145 37.0488 42.7778 37.212 42.8545L37.3203 42.9076L37.3783 42.9363C39.1224 43.7765 40.7303 44.8691 42.1572 46.1829C42.4041 46.4118 42.6445 46.6434 42.8739 46.8766C42.9644 46.9683 43.0453 47.0598 43.1325 47.1515C43.166 47.1868 43.1989 47.2222 43.232 47.2576C41.2 47.6147 39.2311 48.2344 37.3778 49.1288L37.0622 49.2836L37.0611 49.2858C34.1635 50.7368 31.565 52.8397 29.54 55.3751C28.3052 56.9238 27.2828 58.6229 26.4991 60.4317L26.211 61.121C25.7935 62.1677 25.4507 63.2715 25.1911 64.4017C25.106 64.7738 25.0328 65.1469 24.9664 65.5212L24.9087 65.8932C24.8687 66.1446 24.8297 66.3948 24.7984 66.6473L24.7518 67.0885C24.7282 67.3179 24.7057 67.5462 24.6881 67.7756C24.6881 67.7752 24.6881 67.7759 24.6881 67.7756C24.6771 67.9281 24.6695 68.0829 24.6612 68.242C24.6492 68.4638 24.6409 68.6855 24.6354 68.9116L24.6299 69.3824C24.6299 69.5923 24.6332 69.8002 24.6387 70.008C24.6391 70.0205 24.6389 70.033 24.6393 70.0454L24.6557 70.514C24.6557 70.5137 24.6557 70.5144 24.6557 70.514C24.6678 70.7379 24.6832 70.9629 24.7002 71.1868L24.7381 71.638C24.7617 71.8761 24.7918 72.1121 24.8226 72.347C24.8226 72.3474 24.8231 72.3477 24.8231 72.3481L24.8758 72.7509C24.9181 73.0396 24.9691 73.3249 25.0234 73.6114C25.0236 73.6121 25.0238 73.6128 25.024 73.6136L25.0684 73.8582C25.142 74.2215 25.2237 74.5838 25.3154 74.9449L25.4065 75.2775C25.474 75.5278 25.5426 75.7758 25.6189 76.0239C25.6578 76.149 25.6995 76.2741 25.7561 76.4409C25.7564 76.442 25.7567 76.4431 25.7571 76.4441C25.8279 76.6592 25.8987 76.8745 25.9756 77.0885C25.9757 77.0889 25.976 77.0892 25.9761 77.0896L26.1446 77.5308C26.1445 77.5305 26.1447 77.5312 26.1446 77.5308C26.1797 77.621 26.2171 77.7115 26.2529 77.8016C26.2976 77.9139 26.3409 78.0263 26.3877 78.1389C26.4497 78.2871 26.5156 78.4363 26.582 78.5834C26.5819 78.5832 26.5821 78.5836 26.582 78.5834L26.5814 78.5845C26.6653 78.7745 26.7536 78.9624 26.8438 79.1503C26.8471 79.1574 26.8503 79.1647 26.8536 79.1717C26.9244 79.3188 26.9963 79.467 27.0688 79.6086C27.069 79.6089 27.0691 79.6093 27.0693 79.6097C27.0697 79.6105 27.0702 79.6112 27.0706 79.6121C27.1529 79.7753 27.2443 79.9456 27.3537 80.1471C27.3552 80.1499 27.3565 80.1526 27.358 80.1554C24.9346 79.966 22.5236 79.3418 20.3477 78.2926C17.7361 77.0336 15.3966 75.1754 13.585 72.9243L13.5181 72.8387C9.84009 68.2278 8.43794 62.2767 9.66997 56.5166ZM31.874 81.7444L31.8004 81.6511C31.5996 81.3976 31.4042 81.1386 31.2149 80.8752L31.1693 80.8115C27.9145 76.2533 26.7642 70.5085 28.0143 65.0481C28.091 64.712 28.1831 64.3787 28.2775 64.0467C28.4167 63.5579 28.569 63.0728 28.7431 62.6027L28.9067 62.1867C29.6168 60.3835 30.591 58.7007 31.8032 57.184C33.6317 54.8922 35.9932 53.0099 38.6356 51.7389L38.7816 51.6664C39.2055 51.4663 39.6364 51.2818 40.0734 51.1131C40.1298 51.0914 40.1883 51.0751 40.2448 51.0538C40.6275 50.9103 41.0127 50.7736 41.4042 50.6543C41.4463 50.6414 41.4896 50.6327 41.5317 50.6202C42.3918 50.3644 43.2705 50.1634 44.1652 50.0267C44.4791 49.9762 44.7936 49.9334 45.114 49.9004C45.1138 49.9004 45.1143 49.9004 45.114 49.9004C45.1144 49.9004 45.1152 49.9003 45.1155 49.9003C45.2953 49.8807 45.4823 49.87 45.6661 49.8561C44.7342 51.562 44.0168 53.3846 43.5522 55.2906L43.4754 55.6056C43.1005 57.2487 42.9107 58.9368 42.9107 60.6216C42.9107 64.5388 43.9407 68.4078 45.8889 71.8114C46.4586 72.8025 47.1078 73.7585 47.8201 74.6541C47.8205 74.6546 47.8209 74.6549 47.8212 74.6554L47.8201 74.6563C48.0591 74.9533 48.3035 75.2449 48.5556 75.5288L48.8057 75.8C48.8055 75.7998 48.806 75.8002 48.8057 75.8C48.8925 75.8949 48.9816 75.9879 49.0692 76.0815C49.157 76.1753 49.2431 76.2703 49.3326 76.363L49.6432 76.6692C49.6435 76.6697 49.6437 76.6698 49.6443 76.6703C49.8106 76.8333 49.9768 76.9952 50.1475 77.1516C50.1973 77.198 50.2487 77.2432 50.2998 77.2888L50.4905 77.4606C50.511 77.4786 50.5317 77.4957 50.5522 77.5136C50.7003 77.6442 50.8498 77.7737 51.002 77.9018C51.1203 78.0016 51.2404 78.0995 51.362 78.1949C51.5376 78.3354 51.7165 78.4726 51.8932 78.6065C51.8945 78.6074 51.8957 78.6083 51.8969 78.6092L52.262 78.8798C52.4473 79.0146 52.6376 79.1433 52.8262 79.2727L52.8271 79.2715C52.827 79.2714 52.8271 79.2715 52.8271 79.2715C52.9478 79.3538 53.0698 79.4373 53.1917 79.5164C53.2646 79.5637 53.3385 79.6066 53.4119 79.6525C53.547 79.7372 53.6815 79.8229 53.8184 79.9049L54.1499 80.1047C54.1503 80.1049 54.1507 80.1051 54.1512 80.1054C54.1638 80.1127 54.1768 80.1196 54.1896 80.1269C54.4396 80.2703 54.6956 80.4088 55.0202 80.5821L55.1011 80.6257L55.1322 80.6425L55.1344 80.6436C55.4446 80.8033 55.7591 80.9528 56.0752 81.0971C56.0987 81.1078 56.1216 81.1203 56.1452 81.1309L56.4306 81.2527C56.6794 81.3613 56.9272 81.4687 57.1782 81.5662L57.3773 81.6407L57.5754 81.7148C57.6539 81.744 57.7327 81.7706 57.8114 81.7993C57.9515 81.8505 58.0912 81.9028 58.2328 81.9508C58.2332 81.9509 58.2337 81.9503 58.2341 81.9504L58.6752 82.0924C58.8866 82.1592 59.0981 82.2231 59.3107 82.2834C59.4632 82.3273 59.618 82.3668 59.7716 82.4074C59.7713 82.4073 59.772 82.4074 59.7716 82.4074C59.9824 82.4623 60.1942 82.5127 60.4115 82.5643L60.8791 82.6664C61.0607 82.704 61.2547 82.739 61.4892 82.7808C57.7913 86.7547 52.6134 89.04 47.1407 89.04C41.1809 89.04 35.6156 86.3806 31.874 81.7444ZM80.7705 72.8552L80.7145 72.9254C76.7868 77.8013 70.8566 80.5264 64.5407 80.2189L64.445 80.2137L64.3771 80.21C58.786 79.9126 53.5758 77.2301 50.0844 72.8519C49.4654 72.0726 48.899 71.2384 48.4007 70.3724C46.7039 67.4068 45.8066 64.035 45.8066 60.6216C45.8066 59.2529 45.9498 57.8809 46.2319 56.5528L46.3022 56.2477C46.4324 55.6757 46.5963 55.1144 46.7766 54.5588C47.1936 53.2747 47.7343 52.0347 48.4084 50.8619C48.409 50.8609 48.409 50.8596 48.4095 50.8586C48.6433 50.4446 48.916 50.019 49.2143 49.5808C50.0011 51.4439 51.0193 53.1933 52.2675 54.7737L52.3465 54.8746C54.4451 57.5066 57.1517 59.6667 60.1744 61.121C62.1827 62.09 64.3138 62.7517 66.5656 63.0953C66.6952 63.1153 66.8275 63.1231 66.9576 63.1408C67.9497 63.2766 68.9512 63.3567 69.944 63.3567C70.3065 63.3567 70.6674 63.3453 71.025 63.3265C71.0451 63.3256 71.0654 63.3259 71.0855 63.3249C71.0851 63.325 71.0858 63.3248 71.0855 63.3249L71.1804 63.3183C71.2343 63.315 71.2881 63.3121 71.3423 63.3073L71.4262 63.3011L71.4619 63.2986C71.7147 63.2822 71.9676 63.2623 72.2182 63.2371L72.2202 63.2367L72.2204 63.2382L72.4503 63.2101L72.6627 63.1855C72.891 63.157 73.1171 63.1273 73.3432 63.0933C73.4979 63.0703 73.6527 63.0428 73.8086 63.0165C73.8775 63.0039 73.9461 62.9898 74.015 62.9771C74.163 62.9499 74.3113 62.9234 74.4583 62.8936C74.4587 62.8935 74.459 62.8925 74.4594 62.8925C74.5185 62.88 74.5782 62.8667 74.6369 62.8542C74.7286 62.8343 74.815 62.8162 74.9226 62.7926C74.9222 62.7926 74.9229 62.7925 74.9226 62.7926C75.07 62.7595 75.2176 62.7218 75.3644 62.685C75.4402 62.6661 75.5098 62.6509 75.5899 62.6301C75.7246 62.5954 75.8594 62.5603 75.9889 62.523C76 62.5198 76.011 62.5173 76.0222 62.5141C76.2373 62.4527 76.4515 62.3887 76.6633 62.3228C76.6633 62.3228 76.6634 62.3228 76.6633 62.3228L76.6653 62.3211L76.8807 62.2537L77.098 62.1856C77.3241 62.1088 77.5502 62.0265 77.773 61.943L77.821 61.9258L77.8828 61.9035C77.9079 61.8945 77.9312 61.885 77.9561 61.876L78.1495 61.8048L78.149 61.8036C78.1498 61.8032 78.1508 61.8029 78.1517 61.8026C78.1523 61.8023 78.1529 61.8021 78.1535 61.8018C78.4312 61.692 78.7081 61.5765 78.9814 61.4568C78.9829 61.4561 78.9843 61.4553 78.9858 61.4546L79.033 61.4348L79.0688 61.4197L79.1867 61.3701C79.5269 61.2165 79.8639 61.054 80.1986 60.8839L80.2008 60.8827L80.2304 60.8668L80.4719 60.7368C80.7112 60.6095 80.9505 60.4822 81.1843 60.3461L81.5364 60.135C81.7412 60.0123 81.944 59.8889 82.1444 59.7597L82.5156 59.513C82.7055 59.3846 82.8943 59.2551 83.0809 59.1223C83.2038 59.0334 83.3267 58.9423 83.4486 58.8512C83.6308 58.714 83.8108 58.5746 83.9886 58.4341C84.0059 58.4202 84.0228 58.4061 84.04 58.3922L84.3408 58.1486C84.3601 58.1324 84.3788 58.1155 84.3981 58.0992C84.5274 57.9905 84.6653 57.8714 84.8223 57.7335C84.9648 58.6927 85.0554 59.6588 85.0554 60.6183C85.0554 65.047 83.5342 69.3923 80.7705 72.8552Z" fill="var(--fill-0, #14A3D6)"/>
</g>
</svg>
