<svg preserveAspectRatio="xMidYMid meet" width="100%" height="100%" overflow="visible" style="display: block;" viewBox="0 0 94.4092 94.4092" fill="none" xmlns="http://www.w3.org/2000/svg">
<g id="Phase2_Icon_Black_Adult">
<path id="Vector" d="M2.79772 91.9658V89.437C26.687 89.437 46.1224 70.3918 46.1224 46.9816C46.1224 23.5708 26.687 4.5251 2.79772 4.5251V1.99629C24.7141 1.99629 43.0887 17.1604 47.5942 37.3553C51.9428 17.0347 70.1297 1.74494 91.8398 1.74494V4.27376C68.2924 4.27376 49.1352 23.3195 49.1352 46.7302C49.1352 70.1405 68.2924 89.1856 91.8398 89.1856V91.7145C70.2197 91.7145 52.0943 76.5525 47.6491 56.3582C43.2413 76.6776 24.8052 91.9658 2.79772 91.9658ZM2.79772 72.6001V70.0713C15.7969 70.0713 26.372 59.7135 26.372 46.9816C26.372 34.2491 15.7969 23.8908 2.79772 23.8908V21.3619C17.1908 21.3619 28.9009 32.8547 28.9009 46.9816C28.9009 61.1074 17.1908 72.6001 2.79772 72.6001ZM91.8398 72.3477C77.6371 72.3477 66.0829 60.8561 66.0829 46.7302C66.0829 32.6033 77.6371 21.1106 91.8398 21.1106V23.6394C79.0322 23.6394 68.6118 33.9978 68.6118 46.7302C68.6118 59.461 79.0322 69.8189 91.8398 69.8189V72.3477Z" fill="var(--fill-0, #14A3D6)"/>
</g>
</svg>
