<svg preserveAspectRatio="xMidYMid meet" width="100%" height="100%" overflow="visible" style="display: block;" viewBox="0 0 94.4092 94.4092" fill="none" xmlns="http://www.w3.org/2000/svg">
<g id="Phase2_Icon_Black_Deploy">
<path id="Vector" d="M91.6322 68.5849L70.3944 47.2465L91.5691 25.9713C91.9027 25.7638 92.1268 25.3979 92.1268 24.9758V3.44914C92.1268 2.80177 91.6025 2.27638 90.9542 2.27638H69.4275C69.4243 2.27638 69.4212 2.27747 69.4181 2.27747C69.3441 2.27747 69.2701 2.28475 69.1971 2.29936C69.1513 2.30869 69.1085 2.32535 69.0647 2.33894C69.0366 2.34834 69.0063 2.35458 68.9782 2.36603C68.9282 2.38689 68.8833 2.41398 68.8375 2.44108C68.8166 2.45254 68.7958 2.46193 68.776 2.47449C68.7113 2.51825 68.6519 2.5662 68.5977 2.62143L47.2946 24.0247L26.0182 2.84972C25.8118 2.5151 25.4448 2.28996 25.0237 2.28996H3.49705C2.84866 2.28996 2.32326 2.81529 2.32326 3.46368V24.9893C2.32326 24.9977 2.32641 25.0049 2.32641 25.0133C2.32744 25.0842 2.33369 25.154 2.34727 25.2228C2.3483 25.2302 2.35138 25.2374 2.35351 25.2458C2.36703 25.3052 2.38479 25.3625 2.4077 25.4198C2.41607 25.4407 2.4254 25.4615 2.4348 25.4814C2.45566 25.5251 2.47857 25.5679 2.5036 25.6085C2.51506 25.6273 2.52549 25.645 2.53804 25.6627C2.57447 25.7149 2.61515 25.7638 2.65994 25.8108C2.6631 25.8139 2.66515 25.817 2.66831 25.8201C2.66934 25.8201 2.66934 25.8212 2.66934 25.8212L24.2118 47.2618L2.62242 68.7482C2.62242 68.7492 2.62139 68.7492 2.62139 68.7492C2.6183 68.7523 2.61617 68.7565 2.61199 68.7597C2.5672 68.8055 2.52761 68.8556 2.49112 68.9066C2.47857 68.9244 2.46814 68.9431 2.45668 68.9608C2.43171 69.0025 2.40873 69.0442 2.38788 69.088C2.37855 69.1088 2.36915 69.1287 2.36078 69.1505C2.33787 69.2069 2.32017 69.2652 2.30659 69.3246C2.30453 69.3319 2.30137 69.3393 2.30035 69.3476C2.28574 69.4164 2.28052 69.4862 2.27949 69.556C2.27846 69.5644 2.27634 69.5717 2.27634 69.58V91.1067C2.27634 91.754 2.80173 92.2794 3.45013 92.2794H24.9757C25.3979 92.2794 25.7648 92.0553 25.9713 91.7206L47.3105 70.4831L68.6597 91.9337C68.6597 91.9348 68.6608 91.9348 68.6608 91.9348C68.715 91.989 68.7744 92.038 68.8391 92.0817C68.8588 92.0942 68.8797 92.1026 68.9005 92.1151C68.9464 92.1412 68.9922 92.1693 69.0413 92.1891C69.0694 92.2017 69.0986 92.2069 69.1278 92.2162C69.1716 92.2308 69.2143 92.2475 69.2612 92.2558C69.3331 92.2705 69.4071 92.2777 69.4811 92.2788C69.4843 92.2788 69.4874 92.2798 69.4916 92.2798H91.0172C91.6656 92.2798 92.191 91.7545 92.191 91.1061V69.5804C92.191 69.1583 91.9658 68.7914 91.6322 68.5849ZM70.6012 4.62286H89.7815V23.7791L70.6012 23.801V4.62286ZM69.9153 26.1485H88.0813L68.2683 46.0563L50.0815 46.0782L59.4611 36.6528L69.9153 26.1485ZM68.2547 24.4921L48.4714 44.3691L48.4503 26.1899L68.2547 6.2907V24.4921ZM26.1964 6.33659L46.0818 26.1282V44.2934L43.8724 42.0942L26.1964 24.5025V6.33659ZM4.66974 4.63644H23.826L23.8489 23.8166H4.66974V4.63644ZM24.539 26.1631L44.4593 45.9886H26.259L6.33861 26.1631H24.539ZM23.779 89.933H4.62282V70.7527H23.802L23.779 89.933ZM24.4921 68.4073H6.29169L26.212 48.5808H44.4124L24.4921 68.4073ZM46.0562 68.4209L26.1495 88.2338V70.0678L43.8244 52.4752L46.0782 50.233L46.0562 68.4209ZM68.3178 88.2644L48.4913 68.3442V50.1438L68.3178 70.0641V88.2644ZM59.5241 57.9024L50.1446 48.478L68.3325 48.4999L88.1454 68.4067H69.9784L59.5241 57.9024ZM89.8445 89.9334H70.6643V70.7542L89.8445 70.7771V89.9334Z" fill="var(--fill-0, #14A3D6)"/>
</g>
</svg>
