<svg preserveAspectRatio="xMidYMid meet" width="100%" height="100%" overflow="visible" style="display: block;" viewBox="0 0 94.4092 94.4092" fill="none" xmlns="http://www.w3.org/2000/svg">
<g id="Phase2_Icon_Black_Design">
<path id="Vector" d="M45.8563 92.9324V78.3259L2.03493 92.9324V75.6609L45.8563 61.0544V49.1116L2.03493 63.7193V46.4462L45.8563 31.8391V19.8974L2.03493 34.5051V17.2314L48.3851 1.78137V16.3885L92.2059 1.78137V19.0545L48.3851 33.6621V45.6032L92.2059 30.9961V48.2687L48.3851 62.8764V74.818L92.2059 60.2114V77.4829L45.8563 92.9324ZM4.56375 77.4829V89.4246L45.8563 75.6609V63.7193L4.56375 77.4829ZM48.3851 77.4829V89.4246L89.677 75.6609V63.7193L48.3851 77.4829ZM48.3851 48.2687V60.2114L89.677 46.4462V34.5051L48.3851 48.2687ZM4.56375 48.2687V60.2114L45.8563 46.4462V34.5051L4.56375 48.2687ZM4.56375 19.0545V30.9961L45.8563 17.2314V5.29032L4.56375 19.0545ZM48.3851 19.0545V30.9961L89.677 17.2314V5.29032L48.3851 19.0545Z" fill="var(--fill-0, #14A3D6)"/>
</g>
</svg>
