<svg preserveAspectRatio="xMidYMid meet" width="100%" height="100%" overflow="visible" style="display: block;" viewBox="0 0 94.4092 94.4092" fill="none" xmlns="http://www.w3.org/2000/svg">
<g id="Phase2_Icon_Black_Develop">
<path id="Vector" d="M48.384 92.1318H47.1195C34.3103 92.1318 23.8893 81.7103 23.8893 68.9004C23.8893 59.8816 29.0562 52.046 36.585 48.199H1.92404V46.9346C1.92404 34.1259 12.345 23.7049 25.1537 23.7049C34.1725 23.7049 42.0081 28.8718 45.8551 36.4001V1.73856H47.1195C59.9294 1.73856 70.3509 12.1601 70.3509 24.9693C70.3509 33.9881 65.1835 41.8232 57.6552 45.6702H92.3167V46.9346C92.3167 59.7433 81.8952 70.1648 69.0865 70.1648C60.0666 70.1648 52.231 64.9974 48.384 57.4692V92.1318ZM45.8551 48.2374C35.0264 48.8927 26.4181 57.9104 26.4181 68.9004C26.4181 79.8916 35.0264 88.9093 45.8551 89.5645V48.2374ZM48.4224 48.199C49.0776 59.0277 58.0953 67.636 69.0865 67.636C80.0765 67.636 89.0942 59.0277 89.7495 48.199H48.4224ZM4.49128 45.6702H45.8167C45.162 34.842 36.1443 26.2337 25.1537 26.2337C14.1637 26.2337 5.14598 34.842 4.49128 45.6702ZM48.384 4.3058V45.6318C59.2127 44.9771 67.822 35.9594 67.822 24.9693C67.822 13.9787 59.2127 4.9605 48.384 4.3058Z" fill="var(--fill-0, #14A3D6)"/>
</g>
</svg>
