<svg preserveAspectRatio="xMidYMid meet" width="100%" height="100%" overflow="visible" style="display: block;" viewBox="0 0 94.4092 94.4092" fill="none" xmlns="http://www.w3.org/2000/svg">
<g id="Phase2_Icon_Black_Transform">
<path id="Vector" d="M92.6284 83.886L48.6924 7.78274C48.2069 6.84001 46.9626 6.86821 46.36 7.94079L8.09079 74.2153L2.49918 83.886C2.04697 84.735 2.50992 85.8401 3.86127 85.8562L91.5001 85.8485C92.5527 85.8625 93.2173 84.8769 92.6284 83.886ZM14.5226 79.6867L69.0535 48.2811L78.4587 64.5719L14.5226 79.6867ZM10.8731 78.7537L57.8538 28.8848L67.7518 46.0267L10.8731 78.7537ZM10.3584 75.5049L47.5641 11.0618L56.4961 26.5327L10.3584 75.5049ZM89.238 83.245H10.7711L79.8175 66.923L89.238 83.245Z" fill="var(--fill-0, #14A3D6)"/>
</g>
</svg>
