<svg preserveAspectRatio="xMidYMid meet" width="100%" height="100%" overflow="visible" style="display: block;" viewBox="0 0 94.4092 94.4092" fill="none" xmlns="http://www.w3.org/2000/svg">
<g id="Phase2_Icon_Black_Direct">
<path id="Vector" d="M47.12 92.764L46.5548 92.7574H46.5416C22.0069 92.4479 2.04581 72.2327 2.04581 47.693C2.04581 22.8384 22.2659 2.61772 47.12 2.61772C71.9725 2.61772 92.192 22.8384 92.192 47.693C92.192 72.2327 72.2326 92.4479 47.6985 92.7574H47.6941L47.12 92.764ZM47.12 90.2351L47.6392 90.2286C58.2209 89.9607 66.8369 81.1187 66.8369 70.5194C66.8369 59.6457 57.9915 50.7992 47.12 50.7992C36.2469 50.7992 27.401 59.6457 27.401 70.5194C27.401 80.2252 34.2449 88.2134 43.4733 89.9048C43.4766 89.9081 43.481 89.9081 43.4854 89.907C43.4892 89.9081 43.4903 89.9092 43.4975 89.9092C44.5083 90.0936 45.5472 90.2022 46.6097 90.2286L47.12 90.2351ZM47.12 28.5546C30.1142 28.5546 16.2787 42.3901 16.2787 59.3965C16.2787 70.1539 21.9087 79.7171 30.3754 85.2434C26.9383 81.3305 24.8721 76.1851 24.8721 70.5194C24.8721 58.2517 34.8524 48.2704 47.12 48.2704C59.3866 48.2704 69.3657 58.2517 69.3657 70.5194V70.6346C69.3372 76.2542 67.277 81.3568 63.8647 85.2423C72.3292 79.7149 77.9587 70.1528 77.9587 59.3965C77.9587 42.3901 64.1248 28.5546 47.12 28.5546ZM47.12 26.0258C65.5187 26.0258 80.4875 40.9956 80.4875 59.3965C80.4875 68.7171 76.5812 77.2091 70.3217 83.293C81.9473 75.667 89.6632 62.5158 89.6632 47.693C89.6632 24.2329 70.5786 5.14654 47.12 5.14654C23.6604 5.14654 4.57463 24.2329 4.57463 47.693C4.57463 62.5147 12.2906 75.6659 23.9145 83.2908C17.6545 77.2069 13.7498 68.7171 13.7498 59.3965C13.7498 40.9956 28.7197 26.0258 47.12 26.0258Z" fill="var(--fill-0, #14A3D6)"/>
</g>
</svg>
