<svg preserveAspectRatio="xMidYMid meet" width="100%" height="100%" overflow="visible" style="display: block;" viewBox="0 0 94.4092 94.4092" fill="none" xmlns="http://www.w3.org/2000/svg">
<g id="Phase2_Icon_Black_Discover">
<path id="Vector" d="M90.9711 91.3783H3.32132C2.62326 91.3783 2.05691 90.8119 2.05691 90.1138V4.07201C2.05691 3.37395 2.62326 2.8076 3.32132 2.8076H90.9711C91.6692 2.8076 92.2355 3.37395 92.2355 4.07201V90.1138C92.2355 90.8119 91.6692 91.3783 90.9711 91.3783ZM50.6933 88.8494H89.7067V50.5517L50.6933 88.8494ZM4.58573 88.8494H43.5986L24.1363 69.7439C24.1259 69.734 24.1149 69.7231 24.1051 69.7132L4.58573 50.5517V88.8494ZM28.0991 70.0907L47.1459 88.788L66.1922 70.0907H28.0991ZM50.2389 67.5619H68.0208V50.1061L50.2389 67.5619ZM26.2706 67.5619H44.053L26.2706 50.1061V67.5619ZM26.8111 47.0932L47.1459 67.0548L67.4808 47.0932L47.1459 27.1305L26.8111 47.0932ZM70.5496 47.0932V65.8135L89.6211 47.0927L70.5496 28.3718V47.0932ZM4.67189 47.0927L23.7418 65.8135V28.3724L4.67189 47.0927ZM26.2706 26.6228V44.0798L44.053 26.6228H26.2706ZM50.2389 26.6228L68.0208 44.0798V26.6228H50.2389ZM70.1874 24.4721L89.7067 43.6336V5.33642H50.6933L70.1545 24.4403C70.1654 24.4507 70.1764 24.4612 70.1874 24.4721ZM4.58573 5.33642V43.6336L24.0891 24.4875C24.11 24.4661 24.1308 24.4458 24.1528 24.4255L43.5986 5.33642H4.58573ZM47.1459 24.094H66.1922L47.1459 5.39789L28.1002 24.094H47.1459Z" fill="var(--fill-0, #14A3D6)"/>
</g>
</svg>
