<svg preserveAspectRatio="xMidYMid meet" width="100%" height="100%" overflow="visible" style="display: block;" viewBox="0 0 89.9136 83.0494" fill="none" xmlns="http://www.w3.org/2000/svg">
<g id="Group">
<path id="Vector" d="M44.9563 64.6653L86.4831 41.5251L44.9563 18.385L3.42953 41.5251C3.42953 41.5251 44.9563 64.6653 44.9563 64.6653ZM89.9135 41.5251C89.9135 41.9325 89.6924 42.3076 89.3371 42.5061L45.5035 66.9324C45.1632 67.1214 44.7493 67.1214 44.4101 66.9324L0.576473 42.5061C0.220188 42.3076 0 41.9325 0 41.5251C0 41.1178 0.220188 40.7427 0.576473 40.5442L44.4101 16.1188C44.7493 15.9288 45.1633 15.9288 45.5035 16.1188L89.3371 40.5442C89.6924 40.7427 89.9135 41.1178 89.9135 41.5251Z" fill="var(--fill-0, #14A3D6)"/>
<path id="Vector_2" d="M44.9563 48.689L86.4831 25.5488L44.9563 2.40866L3.42953 25.5488C3.42953 25.5488 44.9563 48.689 44.9563 48.689ZM89.9135 25.5488C89.9135 25.9561 89.6924 26.3313 89.3371 26.5297L45.5035 50.9561C45.1632 51.1451 44.7493 51.1451 44.4101 50.9561L0.576473 26.5298C0.220188 26.3313 0 25.9561 0 25.5488C0 25.1415 0.220188 24.7663 0.576473 24.5679L44.4101 0.142462C44.7493 -0.0474873 45.1633 -0.0474873 45.5035 0.142462L89.3371 24.5679C89.6924 24.7663 89.9135 25.1415 89.9135 25.5488Z" fill="var(--fill-0, #14A3D6)"/>
<path id="Vector_3" d="M44.9563 80.6405L86.4831 57.5004L44.9563 34.3602L3.42953 57.5004C3.42953 57.5004 44.9563 80.6405 44.9563 80.6405ZM89.9135 57.5004C89.9135 57.9077 89.6924 58.2829 89.3371 58.4813L45.5035 82.9077C45.1632 83.0967 44.7493 83.0967 44.4101 82.9077L0.576473 58.4813C0.220188 58.2829 0 57.9077 0 57.5004C0 57.0931 0.220188 56.7179 0.576473 56.5194L44.4101 32.094C44.7493 31.9041 45.1633 31.9041 45.5035 32.094L89.3371 56.5194C89.6924 56.7179 89.9135 57.0931 89.9135 57.5004Z" fill="var(--fill-0, #14A3D6)"/>
</g>
</svg>
