<svg preserveAspectRatio="xMidYMid meet" width="100%" height="100%" overflow="visible" style="display: block;" viewBox="0 0 94.4092 94.4092" fill="none" xmlns="http://www.w3.org/2000/svg">
<g id="Phase2_Icon_Black_Give">
<path id="Vector" d="M93.2551 45.8515L71.1433 33.1564L71.0818 7.6602C71.0753 6.6103 70.0337 6.19962 69.2499 6.60817L47.2007 19.4103L25.0906 6.71738C24.1162 6.19511 23.2611 6.71617 23.2587 7.76776L23.3202 33.2749L1.27368 46.0754C0.40515 46.5913 0.431594 47.6755 1.27423 48.1806L23.3871 60.8762L23.4486 86.3708C23.4491 86.7813 23.6566 87.1599 24.0418 87.4069C24.0852 87.4332 24.1324 87.4596 24.1785 87.4793C24.2229 87.4991 24.2668 87.5134 24.3519 87.5408C24.4776 87.5726 24.5736 87.5869 24.6724 87.5869C24.8864 87.5869 25.0966 87.5309 25.281 87.4234L47.3291 74.6212L69.4442 87.318C69.5869 87.3981 69.7395 87.4486 69.8975 87.4684C70.0589 87.4881 70.2191 87.4782 70.3761 87.4376C70.9051 87.2938 71.2728 86.8109 71.2717 86.2632L71.2102 60.7577L93.2594 47.9561C94.2324 47.3714 94.034 46.2805 93.2551 45.8515ZM71.1498 35.9574L88.125 45.7022L71.174 45.7412L71.1498 35.9574ZM88.1283 48.1306L71.2036 57.9578L71.1795 48.1734L88.1283 48.1306ZM58.2193 68.2992L66.7266 82.9628L49.7515 73.2163L58.2193 68.2992ZM49.6285 20.8042L66.5554 10.9771L58.1194 25.6791L49.6285 20.8042ZM49.3805 48.2327L68.7549 48.1795L68.7824 59.3627L59.1006 64.9834L49.3805 48.2327ZM49.3783 45.7889L59.0161 28.9905L68.722 34.5629L68.7483 45.7467L49.3783 45.7889ZM60.2235 26.887L68.6671 12.1888L68.7154 31.7625L60.2235 26.887ZM37.5294 27.8293L47.2073 22.2102L56.9121 27.7832L47.2622 44.5816L37.5294 27.8293ZM57.001 66.2028L47.3225 71.8213L37.6172 66.25L47.2688 49.4505L57.001 66.2028ZM44.9018 73.2273L27.9744 83.055L36.4099 68.3529L44.9018 73.2273ZM36.3116 25.7329L27.8021 11.0698L44.7789 20.8163L36.3116 25.7329ZM45.1532 48.2431L35.5148 65.0416L25.8089 59.4702L25.7809 48.2854L45.1532 48.2431ZM35.4297 29.0481L45.1493 45.7994L25.776 45.8526L25.7486 34.6688L35.4297 29.0481ZM25.6942 12.2843L34.2131 26.9507L25.742 31.8689C25.742 31.8689 25.6942 12.2843 25.6942 12.2843ZM34.3075 67.1445L25.8627 81.8433L25.8155 62.2691L34.3075 67.1445ZM68.8362 81.7478L60.3179 67.0809L68.789 62.1626L68.8362 81.7478ZM6.40211 45.9014L23.3268 36.0754L23.3503 45.8586L6.40211 45.9014ZM23.38 58.0752L6.40485 48.3298L23.3564 48.2909L23.38 58.0752Z" fill="var(--fill-0, #14A3D6)"/>
</g>
</svg>
