<svg preserveAspectRatio="xMidYMid meet" width="100%" height="100%" overflow="visible" style="display: block;" viewBox="0 0 94.4092 94.4092" fill="none" xmlns="http://www.w3.org/2000/svg">
<g id="Phase2_Icon_Black_Grit">
<path id="Vector" d="M47.5257 90.0173C43.5519 90.0173 39.5869 88.9944 36.0494 86.9518L35.8486 86.8354C28.75 82.7371 24.346 75.1089 24.346 66.9232V54.8685L13.9064 48.8406C6.81711 44.7472 2.41363 37.1196 2.41363 28.9338V28.6896C2.41363 20.5033 6.81766 12.8763 13.9064 8.78449L14.1226 8.65992C21.2074 4.56925 30.0166 4.57089 37.1048 8.66486L47.5389 14.6939L57.9823 8.66431C65.0738 4.5698 73.8829 4.57035 80.9722 8.66486L81.1818 8.78504C88.2678 12.8779 92.6713 20.5055 92.6713 28.6913V28.9333C92.6713 37.119 88.2678 44.7472 81.1785 48.8406L70.7395 54.8707V66.9232C70.7395 75.1089 66.336 82.736 59.2478 86.8288L59.0942 86.9177C55.5139 88.9856 51.5154 90.0173 47.5257 90.0173ZM26.8748 56.3305V66.9232C26.8748 74.2078 30.7942 80.9974 37.1042 84.6403L37.3182 84.7643C43.6227 88.4028 51.4627 88.405 57.7738 84.7599L57.9626 84.6512C64.2923 80.9963 68.2107 74.2078 68.2107 66.9232V31.0039C61.9248 34.6308 56.9802 37.4861 50.7943 41.0599L48.8066 42.2079V68.9943L46.91 67.8989C46.91 67.8989 46.8836 67.8836 46.8331 67.855L31.9835 59.2796C30.1867 58.2413 28.4377 57.2316 26.8748 56.3305ZM33.2007 57.0614C38.1716 59.9316 43.5152 63.018 46.2778 64.6128V42.2079C38.6518 37.8012 32.6996 34.3646 24.9787 29.9101L23.0805 28.8147L24.9787 27.7194C25.5116 27.412 39.7263 19.2076 45.0101 16.1531L35.8403 10.8545C29.532 7.21167 21.6926 7.21002 15.381 10.8529L15.1817 10.9681C8.86189 14.6159 4.94245 21.4039 4.94245 28.6896V28.9338C4.94245 36.219 8.86189 43.0075 15.1708 46.6504L33.2007 57.0614ZM70.7395 26.6256V51.95L79.9141 46.6504C86.223 43.0075 90.1424 36.2184 90.1424 28.9333V28.6913C90.1424 21.4061 86.2241 14.6176 79.9152 10.9742L79.7056 10.854C73.3989 7.21112 65.5578 7.21002 59.2467 10.854L47.8758 17.4164C45.583 18.7461 32.9971 26.011 28.1403 28.8147C34.9689 32.755 40.5522 35.9786 47.5422 40.0177L49.5288 38.8702C56.325 34.9447 61.6208 31.8858 68.8429 27.7194L70.7395 26.6256Z" fill="var(--fill-0, #14A3D6)"/>
</g>
</svg>
