<svg preserveAspectRatio="xMidYMid meet" width="100%" height="100%" overflow="visible" style="display: block;" viewBox="0 0 94.4092 94.4092" fill="none" xmlns="http://www.w3.org/2000/svg">
<g id="Phase2_Icon_Black_Mobile">
<path id="Vector" d="M37.6469 35.8996C37.6469 35.3514 37.3424 34.8574 36.8506 34.611L20.3222 26.3468C19.9282 26.1487 19.4288 26.1476 19.0326 26.3463L2.525 34.6001C2.27969 34.7202 2.07499 34.9008 1.93231 35.1231L1.92353 35.1379C1.77755 35.381 1.70676 35.6301 1.70676 35.8996V57.939C1.70676 58.4877 2.01133 58.9806 2.50305 59.2275L19.0326 67.4923C19.2378 67.5943 19.4584 67.6459 19.6779 67.6459C19.9403 67.6459 20.2015 67.5735 20.4342 67.4297C20.8622 67.1652 21.1174 66.7064 21.1174 66.2037V45.055L36.8506 37.1887C37.3418 36.9428 37.6469 36.4489 37.6469 35.8996ZM18.2363 45.055V63.8736L4.5879 57.0488V38.2308L18.2363 45.055ZM32.9844 35.8996L19.6768 42.5537L6.36926 35.8996L19.6768 29.2461L32.9844 35.8996Z" fill="var(--fill-0, #14A3D6)"/>
<path id="Vector_2" d="M92.5346 35.1466C92.382 34.9073 92.1724 34.7191 91.9364 34.6055L75.4179 26.3457C75.0205 26.1481 74.5277 26.1486 74.1304 26.3462L57.5998 34.6115C57.1092 34.8579 56.804 35.3513 56.804 35.8995C56.804 36.4489 57.1092 36.9428 57.6009 37.1886L73.3336 45.055V66.2036C73.3336 66.7063 73.5893 67.1651 74.0174 67.4296C74.25 67.5734 74.5113 67.6459 74.7736 67.6459C74.9931 67.6459 75.2137 67.5943 75.419 67.4922L91.9496 59.2274C92.4391 58.9805 92.7442 58.4877 92.7442 57.9389V35.8995C92.7442 35.6394 92.6762 35.3853 92.5346 35.1466ZM88.0817 35.8995L74.7747 42.5536L61.4666 35.8995L74.7747 29.246L88.0817 35.8995ZM89.8631 38.2308V57.0487L76.2147 63.8735V45.055L89.8631 38.2308Z" fill="var(--fill-0, #14A3D6)"/>
<path id="Vector_3" d="M30.0522 23.414L46.5801 31.6782C46.7821 31.7798 47.0038 31.8303 47.2255 31.8303C47.4472 31.8303 47.6678 31.7798 47.8698 31.6788L64.3982 23.4146C64.891 23.1693 65.1961 22.6754 65.1961 22.1255C65.1961 21.5772 64.891 21.0839 64.3993 20.8369L47.8698 12.5722C47.4724 12.3735 46.9785 12.3735 46.5812 12.5722L30.0533 20.8364C29.5616 21.0811 29.2559 21.575 29.2559 22.1255C29.2559 22.6759 29.5616 23.1698 30.0522 23.414ZM33.9179 22.1255L47.2255 15.4714L60.5325 22.1255L47.2255 28.7795L33.9179 22.1255Z" fill="var(--fill-0, #14A3D6)"/>
<path id="Vector_4" d="M65.7213 48.3594L47.8286 40.1018C47.4434 39.9245 47.0043 39.9251 46.6213 40.1018L28.7428 48.3528C28.4778 48.4714 28.2638 48.6558 28.0777 48.9357C27.9477 49.1497 27.8763 49.4142 27.8774 49.6798V71.7137C27.8774 72.2438 28.1677 72.73 28.6353 72.9825L46.5357 82.6214C46.7486 82.7366 46.9813 82.7948 47.2623 82.7981C47.4807 82.7948 47.7123 82.7312 47.9131 82.6225L65.8157 72.9825C66.2833 72.7311 66.573 72.2449 66.573 71.7137V49.682C66.573 49.4021 66.4929 49.1321 66.3261 48.8654C66.1801 48.647 65.9628 48.4659 65.7213 48.3594ZM45.7838 60.177V78.9434L30.7591 70.8532V52.0868L45.7838 60.177ZM61.9083 49.7742L47.2261 57.6801L32.5421 49.7731L47.2261 42.9967L61.9083 49.7742ZM63.6908 52.0868V70.8532L48.6661 78.9434V60.177L63.6908 52.0868Z" fill="var(--fill-0, #14A3D6)"/>
</g>
</svg>
