<svg preserveAspectRatio="xMidYMid meet" width="100%" height="100%" overflow="visible" style="display: block;" viewBox="0 0 94.4092 94.4092" fill="none" xmlns="http://www.w3.org/2000/svg">
<g id="Phase2_Icon_Black_Systems">
<path id="Vector" d="M92.2196 45.8831L48.3571 2.02005C47.838 1.502 46.9347 1.4998 46.4133 2.02005L2.55082 45.8825C2.29015 46.1416 2.14691 46.4868 2.14691 46.855C2.14691 47.2232 2.29015 47.5684 2.55027 47.8269L46.4122 91.6899C46.6679 91.9457 47.0225 92.0928 47.3847 92.0928C47.7524 92.0928 48.097 91.9501 48.3571 91.6899L92.2196 47.8269C92.4797 47.5673 92.6224 47.2221 92.6224 46.855C92.6224 46.4879 92.4797 46.1427 92.2196 45.8831ZM89.3033 46.855L69.3165 66.8419L60.2944 57.8209L80.2813 37.8335L89.3033 46.855ZM67.3715 68.7857L47.3847 88.7737L38.3637 79.7516L58.3495 59.7658L67.3715 68.7857ZM38.3637 57.8209L69.3165 26.8681L78.3374 35.8896L47.3847 66.8419L38.3637 57.8209ZM16.4319 35.8896L36.4188 15.9028L45.4409 24.9232L25.4534 44.9106L16.4319 35.8896ZM38.3637 13.9579L47.3847 4.93632L67.3715 24.9232L58.3495 33.9447L38.3637 13.9579ZM38.3637 35.8896L47.3847 26.8681L56.4057 35.8896L47.3847 44.9106L38.3637 35.8896ZM45.4409 46.855L36.4188 55.876L27.3972 46.855L36.4188 37.8335L45.4409 46.855ZM45.4409 68.7857L36.4188 77.8078L5.46654 46.855L14.487 37.8335L45.4409 68.7857Z" fill="var(--fill-0, #14A3D6)"/>
</g>
</svg>
