<svg preserveAspectRatio="xMidYMid meet" width="100%" height="100%" overflow="visible" style="display: block;" viewBox="0 0 94.4092 94.4092" fill="none" xmlns="http://www.w3.org/2000/svg">
<g id="Phase2_Icon_Black_Prototyping">
<path id="Vector" d="M46.4318 92.5689C46.1025 92.5689 45.7798 92.4405 45.5378 92.199L1.72418 48.3848C1.36253 48.0226 1.25441 47.4788 1.44978 47.0063C1.6457 46.5338 2.10668 46.2259 2.61815 46.2259H43.3789L23.6318 26.4777C23.2702 26.1161 23.1621 25.5722 23.3574 25.0997C23.5533 24.6272 24.0143 24.3194 24.5258 24.3194H65.2871L45.5378 4.57065C45.1762 4.209 45.0681 3.66515 45.2634 3.19264C45.4593 2.72014 45.9203 2.41227 46.4318 2.41227H90.246C90.9441 2.41227 91.5104 2.97862 91.5104 3.67668V47.4903C91.5104 48.0018 91.202 48.4628 90.73 48.6581C90.257 48.8535 89.7148 48.7459 89.3515 48.3848L69.6028 28.6356V69.398C69.6028 69.9094 69.2943 70.3704 68.8224 70.5658C68.3493 70.7623 67.8071 70.6536 67.4438 70.2925L47.6962 50.5438V91.3045C47.6962 91.816 47.3878 92.277 46.9158 92.4723C46.7589 92.5371 46.5953 92.5689 46.4318 92.5689ZM5.67052 48.7547L45.1674 88.2521V48.7547H5.67052ZM47.3417 46.6123L67.0739 66.3456V26.8482H27.5782L47.3099 46.5804C47.3208 46.5909 47.3307 46.6013 47.3417 46.6123ZM49.4842 4.94109L88.9816 44.438V4.94109H49.4842Z" fill="var(--fill-0, #14A3D6)"/>
</g>
</svg>
