<svg width="548" height="224" viewBox="0 0 548 224" fill="none" xmlns="http://www.w3.org/2000/svg">
<path d="M287.639 185.648V159.091L365.54 89.6626C371.61 84.2668 375.826 79.1661 378.186 74.3605C380.547 69.5549 381.727 64.9179 381.727 60.4495C381.727 54.3793 380.421 48.9835 377.807 44.2622C375.193 39.4566 371.568 35.6627 366.931 32.8805C362.379 30.0983 357.109 28.7072 351.123 28.7072C344.8 28.7072 339.194 30.1826 334.304 33.1334C329.498 35.9999 325.746 39.836 323.048 44.6416C320.351 49.4472 319.086 54.6322 319.255 60.1966H287.892C287.892 48.0561 290.589 37.4753 295.985 28.4543C301.465 19.4332 308.969 12.4356 318.496 7.46135C328.107 2.48712 339.194 0 351.756 0C363.39 0 373.845 2.61358 383.119 7.84072C392.393 12.9836 399.685 20.1498 404.997 29.3395C410.308 38.4449 412.964 48.9413 412.964 60.8289C412.964 69.5127 411.784 76.8054 409.423 82.7071C407.062 88.6087 403.521 94.0466 398.8 99.0208C394.163 103.995 388.388 109.517 381.475 115.588L326.21 164.529L323.428 156.941H412.964V185.648H287.639Z" fill="white"/>
<path d="M134.594 185.901V3.79395H209.839C211.61 3.79395 213.886 3.87826 216.669 4.04687C219.451 4.13118 222.022 4.38411 224.383 4.80566C234.921 6.40752 243.605 9.90634 250.434 15.3021C257.348 20.6979 262.448 27.5269 265.736 35.7892C269.109 43.9672 270.795 53.0725 270.795 63.1053C270.795 73.0537 269.109 82.1591 265.736 90.4214C262.364 98.5993 257.221 105.386 250.308 110.782C243.479 116.178 234.837 119.677 224.383 121.278C222.022 121.616 219.409 121.869 216.542 122.037C213.76 122.206 211.526 122.29 209.839 122.29H165.071V185.901H134.594ZM165.071 93.8359H208.575C210.261 93.8359 212.158 93.7516 214.266 93.583C216.373 93.4144 218.313 93.0771 220.083 92.5713C225.142 91.3066 229.104 89.0724 231.971 85.8687C234.921 82.665 236.987 79.0397 238.167 74.9928C239.432 70.946 240.064 66.9835 240.064 63.1053C240.064 59.2271 239.432 55.2646 238.167 51.2177C236.987 47.0866 234.921 43.4191 231.971 40.2154C229.104 37.0117 225.142 34.7775 220.083 33.5128C218.313 33.007 216.373 32.7119 214.266 32.6276C212.158 32.459 210.261 32.3747 208.575 32.3747H165.071V93.8359Z" fill="white"/>
<rect x="441.726" y="195.236" width="105.87" height="28.7629" fill="white"/>
</svg>
