<svg width="1034" height="224" viewBox="0 0 1034 224" fill="none" xmlns="http://www.w3.org/2000/svg">
<path d="M792.069 0C803.666 2.68502e-05 814.086 2.60545 823.329 7.81543C832.573 12.9414 839.842 20.0837 845.136 29.2432C850.43 38.3187 853.077 48.7812 853.077 60.6299C853.077 69.2852 851.901 76.5542 849.548 82.4365C847.195 88.3186 843.666 93.7385 838.96 98.6963C834.338 103.654 828.581 109.159 821.69 115.209L775.146 156.428H853.077V185.041H728.162V158.57L805.809 89.3691C811.859 83.9911 816.06 78.907 818.413 74.1172C820.766 69.3274 821.943 64.7056 821.943 60.252C821.943 54.2016 820.64 48.823 818.035 44.1172C815.43 39.3274 811.817 35.5455 807.195 32.7725C802.658 29.9994 797.405 28.6133 791.438 28.6133C785.136 28.6133 779.549 30.0844 774.675 33.0254C769.885 35.8825 766.145 39.7054 763.456 44.4951C760.767 49.285 759.507 54.4538 759.675 60H728.414C728.414 47.8993 731.103 37.3528 736.481 28.3613C741.944 19.3698 749.422 12.3945 758.918 7.43652C768.498 2.47858 779.548 0 792.069 0Z" fill="white"/>
<path d="M644.521 45.3789C658.638 45.3789 670.613 48.6984 680.444 55.3369C690.36 61.8914 697.713 71.1769 702.503 83.1934C707.293 95.2101 709.1 109.37 707.924 125.673H609.395C610.415 135.447 613.298 143.305 618.05 149.244C624.1 156.807 632.924 160.588 644.521 160.588C651.999 160.588 658.429 158.949 663.807 155.672C669.268 152.311 673.47 147.479 676.411 141.177L706.411 150.252C701.201 162.521 693.133 172.059 682.209 178.865C671.369 185.672 659.394 189.075 646.285 189.075C632.504 189.075 620.403 186.092 609.983 180.126C599.563 174.16 591.412 165.882 585.529 155.294C579.731 144.706 576.832 132.521 576.832 118.739C576.832 103.866 579.689 90.9671 585.403 80.043C591.118 69.0347 599.059 60.5045 609.227 54.4541C619.395 48.4038 631.159 45.3789 644.521 45.3789ZM645.781 71.9756C633.344 71.9756 624.1 75.8412 618.05 83.5723C614.163 88.4847 611.528 94.8714 610.138 102.731H677.089C675.992 93.8689 673.623 87.0203 669.982 82.1855C664.856 75.3789 656.79 71.9756 645.781 71.9756Z" fill="white"/>
<path d="M498.578 45.3789C509.166 45.3789 518.536 47.0176 526.688 50.2949C534.923 53.5722 541.562 58.2358 546.604 64.2861C551.645 70.3365 554.754 77.4377 555.931 85.5889L524.923 91.1348C524.167 85.3365 521.519 80.7568 516.981 77.3955C512.528 74.0343 506.562 72.1438 499.083 71.7236C491.94 71.3035 486.183 72.396 481.813 75.001C477.444 77.522 475.26 81.0932 475.26 85.7148C475.26 88.3198 476.142 90.5468 477.906 92.3955C479.671 94.2442 483.2 96.0927 488.494 97.9414C493.872 99.7901 501.856 102.059 512.444 104.748C523.284 107.521 531.94 110.715 538.41 114.328C544.964 117.857 549.67 122.101 552.527 127.059C555.468 132.017 556.939 138.025 556.939 145.084C556.939 158.781 551.939 169.537 541.939 177.353C532.024 185.168 518.284 189.075 500.722 189.075C483.915 189.075 470.259 185.293 459.755 177.73C449.251 170.168 442.865 159.537 440.596 145.84L471.604 141.051C473.2 147.773 476.73 153.067 482.192 156.933C487.654 160.798 494.545 162.73 502.864 162.73C510.175 162.73 515.805 161.302 519.755 158.445C523.788 155.504 525.805 151.513 525.805 146.471C525.805 143.361 525.049 140.882 523.536 139.033C522.107 137.101 518.914 135.252 513.956 133.487C508.998 131.723 501.393 129.496 491.142 126.807C479.713 123.781 470.638 120.546 463.915 117.101C457.192 113.571 452.36 109.412 449.419 104.622C446.478 99.8323 445.008 94.034 445.008 87.2275C445.008 78.7402 447.235 71.3454 451.688 65.043C456.142 58.7405 462.361 53.9082 470.344 50.5469C478.327 47.1017 487.738 45.3789 498.578 45.3789Z" fill="white"/>
<path d="M363.1 45.3789C375.2 45.3789 385.831 47.3542 394.99 51.3037C404.234 55.2533 411.082 61.7234 415.536 70.7148C417.973 75.5047 419.444 80.4209 419.948 85.4629C420.452 90.4207 420.704 95.8406 420.704 101.723V185.294H394.107V166.972C389.015 173.613 383.301 178.712 376.965 182.269C368.814 186.806 358.604 189.075 346.335 189.075C336.503 189.075 328.184 187.227 321.377 183.529C314.57 179.748 309.402 174.748 305.873 168.529C302.428 162.311 300.705 155.462 300.705 147.983C300.705 141.429 301.798 135.546 303.982 130.336C306.167 125.042 309.529 120.504 314.066 116.723C318.604 112.857 324.486 109.706 331.713 107.27C337.175 105.505 343.562 103.908 350.873 102.479C358.268 101.051 366.251 99.7477 374.822 98.5713C380.056 97.8091 385.428 97.0151 390.938 96.1914C390.399 89.0488 388.348 83.6233 384.78 79.916C380.495 75.4623 373.267 73.2354 363.1 73.2354C356.965 73.2354 351.04 74.6644 345.326 77.5215C339.612 80.3786 335.62 85.2949 333.352 92.2695L305.621 83.5723C308.982 72.0598 315.369 62.8156 324.78 55.8408C334.276 48.8661 347.049 45.3789 363.1 45.3789ZM390.515 121.102C385.255 121.938 380.528 122.704 376.335 123.403C369.78 124.496 364.15 125.546 359.444 126.555C354.738 127.479 350.578 128.53 346.965 129.706C343.436 130.967 340.452 132.438 338.016 134.118C335.579 135.799 333.688 137.731 332.344 139.916C331.083 142.101 330.453 144.664 330.453 147.605C330.453 150.967 331.293 153.95 332.974 156.555C334.654 159.076 337.091 161.092 340.284 162.604C343.561 164.117 347.596 164.874 352.386 164.874C359.276 164.874 365.158 163.656 370.032 161.219C374.906 158.782 378.772 155.798 381.629 152.269C384.57 148.739 386.544 145.42 387.553 142.311C389.149 138.445 390.032 134.034 390.2 129.076C390.35 126.076 390.454 123.417 390.515 121.102Z" fill="white"/>
<path d="M182.747 64.2637C186.221 60.188 190.296 56.6657 194.974 53.6973C203.713 48.0671 214.469 45.252 227.242 45.252C237.326 45.252 245.646 46.9326 252.2 50.2939C258.755 53.6552 263.965 57.9405 267.83 63.1504C271.696 68.3604 274.553 73.9068 276.401 79.7891C278.25 85.6714 279.427 91.2596 279.932 96.5537C280.52 101.763 280.813 106.007 280.813 109.284V185.292H250.058V119.747C250.058 115.461 249.763 110.713 249.175 105.503C248.587 100.293 247.2 95.2927 245.016 90.5029C242.915 85.6291 239.721 81.6375 235.436 78.5283C231.234 75.4192 225.52 73.8643 218.293 73.8643C214.427 73.8643 210.604 74.4954 206.822 75.7559C203.041 77.0163 199.595 79.2005 196.486 82.3096C193.461 85.3348 191.025 89.5369 189.176 94.915C187.327 100.209 186.402 107.016 186.402 115.335V185.292H155.646V3.78125H182.747V64.2637Z" fill="white"/>
<path d="M0 185.292V3.78125H74.9994C76.7641 3.78125 79.033 3.86528 81.8061 4.03335C84.5792 4.11738 87.1422 4.36949 89.4951 4.78965C99.9992 6.38627 108.655 9.87363 115.461 15.2517C122.352 20.6299 127.436 27.4365 130.713 35.6718C134.075 43.823 135.755 52.8985 135.755 62.8984C135.755 72.8143 134.075 81.8899 130.713 90.1251C127.352 98.2763 122.226 105.041 115.335 110.419C108.529 115.797 99.9152 119.285 89.4951 120.881C87.1422 121.217 84.5372 121.469 81.68 121.637C78.907 121.806 76.6801 121.89 74.9994 121.89H30.3779V185.292H0ZM30.3779 93.5284H73.7389C75.4196 93.5284 77.3103 93.4444 79.4111 93.2764C81.512 93.1083 83.4447 92.7721 85.2094 92.2679C90.2514 91.0075 94.2009 88.7806 97.0581 85.5873C99.9992 82.3941 102.058 78.7807 103.234 74.7471C104.495 70.7135 105.125 66.7639 105.125 62.8984C105.125 59.0329 104.495 55.0834 103.234 51.0498C102.058 46.9322 99.9992 43.2767 97.0581 40.0835C94.2009 36.8902 90.2514 34.6634 85.2094 33.4029C83.4447 32.8987 81.512 32.6046 79.4111 32.5205C77.3103 32.3525 75.4196 32.2684 73.7389 32.2684H30.3779V93.5284Z" fill="white"/>
<rect x="882.172" y="195.352" width="151.83" height="28.6476" fill="url(#paint0_linear_75_1726)"/>
<defs>
<linearGradient id="paint0_linear_75_1726" x1="850.232" y1="209.676" x2="1082.3" y2="209.676" gradientUnits="userSpaceOnUse">
<stop stop-color="#9AE4FF"/>
<stop offset="0.471154" stop-color="#14A3D6"/>
<stop offset="1" stop-color="#1A386F"/>
</linearGradient>
</defs>
</svg>
